<?xml version="1.0" encoding="UTF-8"?><svg xmlns="http://www.w3.org/2000/svg" width="1000" height="1000" viewBox="0 0 1000 1000"><g id="Background"><circle cx="500" cy="500" r="500" fill="#fff"/></g><g id="Layer_1"><path d="m747.47,244.85H252.53c-45.17,0-81.93,36.75-81.93,81.93v346.46c0,45.17,36.75,81.93,81.93,81.93h494.93c45.17,0,81.93-36.75,81.93-81.93v-346.46c0-45.17-36.75-81.93-81.93-81.93Zm41.93,428.38c0,23.12-18.81,41.93-41.93,41.93H252.53c-23.12,0-41.93-18.81-41.93-41.93v-346.46c0-23.12,18.81-41.93,41.93-41.93h494.93c23.12,0,41.93,18.81,41.93,41.93v346.46Z" fill="#0070b5"/><path d="m730.46,311.54h-226.82c-17.78,0-32.24,14.46-32.24,32.24s14.46,32.24,32.24,32.24h226.82c17.78,0,32.24-14.46,32.24-32.24s-14.46-32.24-32.24-32.24Zm0,44.48h-226.82c-6.75,0-12.24-5.49-12.24-12.24s5.49-12.24,12.24-12.24h226.82c6.75,0,12.24,5.49,12.24,12.24s-5.49,12.24-12.24,12.24Z" fill="#0070b5"/><circle cx="268.46" cy="342.7" r="21.16" transform="translate(-124.92 156.24) rotate(-26.57)" fill="#0070b5"/><circle cx="325.21" cy="342.7" r="21.16" transform="translate(-95.1 126.97) rotate(-19.33)" fill="#0070b5"/><circle cx="382.9" cy="342.7" r="21.16" fill="#0070b5"/><path d="m589.3,474.4c-3.9-3.9-10.23-3.91-14.14,0-3.91,3.91-3.91,10.24,0,14.14l57.67,57.67-57.67,57.67c-3.91,3.91-3.91,10.24,0,14.14,1.95,1.95,4.51,2.93,7.07,2.93s5.12-.98,7.07-2.93l64.74-64.74c3.91-3.9,3.91-10.24,0-14.14l-64.74-64.74Z" fill="#0070b5"/><path d="m424.84,474.4c-3.91-3.91-10.24-3.9-14.14,0l-64.74,64.74c-3.91,3.9-3.91,10.24,0,14.14l64.74,64.74c1.95,1.95,4.51,2.93,7.07,2.93s5.12-.98,7.07-2.93c3.91-3.91,3.91-10.24,0-14.14l-57.67-57.67,57.67-57.67c3.91-3.91,3.91-10.24,0-14.14Z" fill="#0070b5"/><path d="m529.22,437.16c-5.34-1.43-10.82,1.74-12.25,7.07l-53.27,198.8c-1.43,5.33,1.74,10.82,7.07,12.25.87.23,1.74.34,2.59.34,4.42,0,8.46-2.95,9.65-7.41l53.27-198.8c1.43-5.33-1.74-10.82-7.07-12.25Z" fill="#0070b5"/></g></svg>