<svg xmlns="http://www.w3.org/2000/svg" xmlns:xlink="http://www.w3.org/1999/xlink" viewBox="0 0 100 125" version="1.1" x="0px" y="0px">
  <title>Opening quotes</title>
  <g stroke="none" stroke-width="1" fill="none" fill-rule="evenodd">
    <path
      d="M5,28.3547605 L5,43.5013139 C5,49.2199313 9.63614312,53.8560744 15.3547605,53.8560744 C21.0774207,53.8560744 26.5928846,57.2429755 23.6820295,63.5781282 C22.6389731,65.8492015 20.9177279,67.7331716 19.640186,69.8799272 C18.0291086,72.5886396 17.4610875,75.8047301 19.2065899,78.5872246 C22.1578735,83.2910855 29.0206186,83.264807 31.9345058,78.5366889 C39.0933899,66.7052759 42.8775015,53.1394785 42.8775015,39.3098848 L42.8775015,28.3547605 C42.8775015,22.6361431 38.2413584,18 32.5227411,18 L15.3547605,18 C9.63614312,18 5,22.6361431 5,28.3547605 M67.4772589,18 L84.6452395,18 C90.3638569,18 95,22.6361431 95,28.3547605 L95,39.3098848 C95,53.1394785 91.2148777,66.7052759 84.0570042,78.5366889 C81.143117,83.264807 74.2793612,83.2910855 71.3290883,78.5872246 C69.583586,75.8047301 70.151607,72.5886396 71.7626845,69.8799272 C73.0402264,67.7331716 74.7614716,65.8492015 75.804528,63.5781282 C78.7153831,57.2429755 73.1999191,53.8560744 67.4772589,53.8560744 C61.7586416,53.8560744 57.1224985,49.2199313 57.1224985,43.5013139 L57.1224985,28.3547605 C57.1224985,22.6361431 61.7586416,18 67.4772589,18"
      fill="#D9DFE6" transform="translate(50.000000, 50.049504) scale(-1, -1) translate(-50.000000, -50.049504) " />
  </g>
</svg>