<?xml version="1.0" encoding="UTF-8" standalone="no"?>
<!DOCTYPE svg PUBLIC "-//W3C//DTD SVG 1.1//EN" "http://www.w3.org/Graphics/SVG/1.1/DTD/svg11.dtd">
<svg width="100%" height="100%" viewBox="0 0 46 33" version="1.1" xmlns="http://www.w3.org/2000/svg" xmlns:xlink="http://www.w3.org/1999/xlink" xml:space="preserve" xmlns:serif="http://www.serif.com/" style="fill-rule:evenodd;clip-rule:evenodd;stroke-linejoin:round;stroke-miterlimit:2;">
    <g transform="matrix(1,0,0,1,-5,-18)">
        <g transform="matrix(-0.500158,0,0,-0.500158,52.515,59.0625)">
            <path d="M5,28.355L5,43.501C5,49.22 9.636,53.856 15.355,53.856C21.077,53.856 26.593,57.243 23.682,63.578C22.639,65.849 20.918,67.733 19.64,69.88C18.029,72.589 17.461,75.805 19.207,78.587C22.158,83.291 29.021,83.265 31.935,78.537C39.093,66.705 42.878,53.139 42.878,39.31L42.878,28.355C42.878,22.636 38.241,18 32.523,18L15.355,18C9.636,18 5,22.636 5,28.355M67.477,18L84.645,18C90.364,18 95,22.636 95,28.355L95,39.31C95,53.139 91.215,66.705 84.057,78.537C81.143,83.265 74.279,83.291 71.329,78.587C69.584,75.805 70.152,72.589 71.763,69.88C73.04,67.733 74.761,65.849 75.805,63.578C78.715,57.243 73.2,53.856 67.477,53.856C61.759,53.856 57.122,49.22 57.122,43.501L57.122,28.355C57.122,22.636 61.759,18 67.477,18" style="fill:rgb(217,223,230);"/>
        </g>
    </g>
</svg>
